<svg width="30" height="25" fill="none" xmlns="http://www.w3.org/2000/svg"><g filter="url('#filter0_d_101_2')"><path d="M13.224 8.384a3.46 3.46 0 0 1 1.656.744c.512.4.912.896 1.2 1.488.304.592.456 1.224.456 1.896 0 .848-.216 1.616-.648 2.304-.432.672-1.064 1.208-1.896 1.608-.816.384-1.784.576-2.904.576h-6.24V.272h6c1.136 0 2.104.192 2.904.576.8.368 1.4.872 1.8 1.512.4.64.6 1.36.6 2.16 0 .992-.272 1.816-.816 2.472-.528.64-1.232 1.104-2.112 1.392Zm-6.192-.888h3.672c1.024 0 1.816-.24 2.376-.72.56-.48.84-1.144.84-1.992 0-.848-.28-1.512-.84-1.992-.56-.48-1.368-.72-2.424-.72H7.032v5.424Zm3.864 7.704c1.088 0 1.936-.256 2.544-.768.608-.512.912-1.224.912-2.136 0-.928-.32-1.656-.96-2.184-.64-.544-1.496-.816-2.568-.816H7.032V15.2h3.864Z" fill="#000"/><path d="M21.75 5.984a4.212 4.212 0 0 1 1.633-1.752c.72-.416 1.592-.624 2.616-.624v2.256h-.576c-2.448 0-3.672 1.328-3.672 3.984V17h-2.184V3.848h2.184v2.136Z" fill="#8F95A5"/></g><defs><filter id="filter0_d_101_2" x=".848" y=".272" width="29.151" height="24.728" filterUnits="userSpaceOnUse" color-interpolation-filters="sRGB"><feFlood flood-opacity="0" result="BackgroundImageFix"/><feColorMatrix in="SourceAlpha" values="0 0 0 0 0 0 0 0 0 0 0 0 0 0 0 0 0 0 127 0" result="hardAlpha"/><feOffset dy="4"/><feGaussianBlur stdDeviation="2"/><feComposite in2="hardAlpha" operator="out"/><feColorMatrix values="0 0 0 0 0 0 0 0 0 0 0 0 0 0 0 0 0 0 0.25 0"/><feBlend in2="BackgroundImageFix" result="effect1_dropShadow_101_2"/><feBlend in="SourceGraphic" in2="effect1_dropShadow_101_2" result="shape"/></filter></defs></svg>