<svg width="52" height="52" fill="none" xmlns="http://www.w3.org/2000/svg"><g clip-path="url('#clip0_590_8264')" fill="#000"><path d="M36.218 29.087a12.958 12.958 0 0 0 2.641-7.896 12.98 12.98 0 0 0-3.906-9.306 12.983 12.983 0 0 0-9.372-3.752c-3.419.052-6.638 1.427-9.065 3.873-2.427 2.445-3.778 5.674-3.805 9.093a12.95 12.95 0 0 0 2.674 8.032c2.88 3.771 4.467 8.393 4.473 13.014l.005 5.056a4.072 4.072 0 0 0 4.072 4.063l3.784-.004a4.072 4.072 0 0 0 4.063-4.072l-.006-5.056c-.005-4.672 1.52-9.183 4.442-13.045Zm-19.5-.973a11.288 11.288 0 0 1-2.331-7.001c.048-6.14 5.082-11.21 11.22-11.304a11.326 11.326 0 0 1 8.17 3.27 11.316 11.316 0 0 1 3.406 8.114 11.295 11.295 0 0 1-2.302 6.882c-3.08 4.07-4.734 8.816-4.797 13.744l-8.553.01c-.075-4.88-1.778-9.74-4.813-13.715Zm4.821 18.517v-.678l8.566.971v.266c0 .14-.014.276-.037.409l-8.529-.968Zm-.003-2.365v-.761l8.565-.01.002 1.742-8.567-.971Zm2.397 5.322a2.392 2.392 0 0 1-2.094-1.236l7.216.819c-.382.26-.842.412-1.338.413l-3.784.004Z"/><path d="M17.498 22.476a8.578 8.578 0 0 1-.094-1.34.838.838 0 1 0-1.676-.013c-.004.538.033 1.077.112 1.602a.838.838 0 1 0 1.658-.25ZM22.445 35.201a.84.84 0 0 0 .796-1.1 26.592 26.592 0 0 0-4.124-7.818 8.466 8.466 0 0 1-.786-1.237.838.838 0 0 0-1.488.771c.268.516.584 1.015.942 1.483a24.917 24.917 0 0 1 3.864 7.326.838.838 0 0 0 .796.575ZM34.595 24.066a.838.838 0 0 0-1.101.439 8.385 8.385 0 0 1-1.02 1.75.838.838 0 0 0 1.338 1.01c.493-.651.904-1.357 1.222-2.099a.838.838 0 0 0-.44-1.1ZM25.776 12.825c4.62-.005 8.385 3.75 8.39 8.372 0 .262-.011.527-.035.787a.838.838 0 0 0 1.67.15c.027-.31.042-.626.041-.94-.006-5.545-4.523-10.051-10.068-10.045a.838.838 0 1 0 .002 1.676ZM25.768 6.685a.838.838 0 0 0 .837-.839L26.6 1.153a.838.838 0 1 0-1.676.002l.005 4.693c0 .463.376.838.84.837ZM17.291 8.35a.838.838 0 1 0 1.451-.839l-2.35-4.06a.838.838 0 1 0-1.451.84l2.35 4.06ZM43.707 30.705l-4.066-2.341a.838.838 0 1 0-.836 1.453l4.066 2.34a.838.838 0 1 0 .836-1.453ZM7.862 12l4.066 2.34a.834.834 0 0 0 1.145-.308.838.838 0 0 0-.308-1.144l-4.066-2.342A.838.838 0 1 0 7.862 12ZM45.983 20.49l-4.694.006a.838.838 0 1 0 .002 1.676l4.694-.005a.838.838 0 1 0-.002-1.676ZM11.118 21.369a.838.838 0 0 0-.84-.838l-4.693.006a.838.838 0 1 0 .002 1.676l4.694-.005a.838.838 0 0 0 .837-.84ZM39.207 14.422a.833.833 0 0 0 .418-.113l4.06-2.35a.838.838 0 0 0-.839-1.451l-4.06 2.35a.838.838 0 0 0 .42 1.564ZM11.945 28.395l-4.061 2.35a.838.838 0 0 0 .84 1.451l4.06-2.35a.838.838 0 0 0-.84-1.45ZM33.105 8.64a.838.838 0 0 0 1.145-.308l2.341-4.066a.838.838 0 1 0-1.453-.836l-2.34 4.066a.838.838 0 0 0 .307 1.144Z"/></g><defs><clipPath id="clip0_590_8264"><path fill="#fff" transform="rotate(-.065 305.601 -254.457)" d="M0 0h50.947v50.947H0z"/></clipPath></defs></svg>