<svg width="52" height="52" viewBox="0 0 52 52" fill="none" xmlns="http://www.w3.org/2000/svg">
<g clip-path="url(#clip0_590_8264)">
<path d="M36.2178 29.0866C37.9492 26.7981 38.8626 24.0679 38.8594 21.191C38.8554 17.6637 37.4683 14.3587 34.9534 11.8847C32.4391 9.41128 29.1087 8.07778 25.581 8.13272C22.1624 8.18496 18.9431 9.56038 16.5161 12.0056C14.0892 14.4508 12.7377 17.6804 12.7105 21.0995C12.6872 24.0306 13.6122 26.8078 15.3854 29.1309C18.2641 32.9023 19.8525 37.5241 19.8577 42.1451L19.8634 47.2013C19.8659 49.4441 21.6926 51.2667 23.9354 51.2641L27.7187 51.2599C29.9615 51.2573 31.7841 49.4306 31.7815 47.1879L31.7758 42.132C31.7707 37.46 33.2955 32.9488 36.2178 29.0866ZM16.718 28.1139C15.1726 26.0893 14.3664 23.6684 14.3867 21.1129C14.4355 14.9736 19.4687 9.90265 25.6066 9.8089C28.6858 9.76408 31.586 10.9236 33.7778 13.0799C35.9703 15.2366 37.1796 18.118 37.1831 21.193C37.1859 23.701 36.3899 26.0808 34.881 28.0752C31.8019 32.1449 30.1469 36.8905 30.0845 41.8186L21.5313 41.8283C21.4557 36.9481 19.7527 32.0896 16.718 28.1139ZM21.539 46.6314L21.5383 45.9528L30.105 46.9244L30.1053 47.1898C30.1055 47.3294 30.0911 47.4656 30.0682 47.5987L21.539 46.6314ZM21.5364 44.2655L21.5355 43.5046L30.1012 43.4949L30.1031 45.2372L21.5364 44.2655ZM23.9335 49.5879C23.0331 49.5889 22.2474 49.0892 21.8388 48.3524L29.0554 49.1709C28.6734 49.4307 28.2127 49.583 27.7169 49.5836L23.9335 49.5878L23.9335 49.5879Z" fill="black"/>
<path d="M17.4981 22.4757C17.4322 22.0371 17.4005 21.5866 17.4041 21.1367C17.4079 20.6738 17.0356 20.2956 16.5727 20.2918C16.113 20.2883 15.7317 20.6603 15.7279 21.1232C15.7236 21.6608 15.7614 22.1996 15.8404 22.7249C15.9029 23.1408 16.2608 23.4391 16.6692 23.4386C16.7103 23.4386 16.752 23.4355 16.7939 23.4292C17.2515 23.3603 17.5669 22.9335 17.4981 22.4757Z" fill="black"/>
<path d="M22.4454 35.2013C22.5321 35.2012 22.6204 35.1875 22.7073 35.1589C23.1469 35.0138 23.3856 34.5398 23.2405 34.1003C22.3084 31.2766 20.9211 28.6463 19.1169 26.2828C18.8188 25.8921 18.5544 25.4759 18.3315 25.0456C18.1184 24.6346 17.6126 24.4742 17.2015 24.6872C16.7906 24.9003 16.6302 25.4061 16.8432 25.8171C17.1109 26.3334 17.4275 26.8322 17.7845 27.3C19.4752 29.5148 20.7753 31.9796 21.6487 34.6257C21.7651 34.9784 22.0932 35.2017 22.4454 35.2013Z" fill="black"/>
<path d="M34.5949 24.0656C34.1695 23.8829 33.6766 24.0797 33.494 24.505C33.2292 25.122 32.8862 25.7105 32.4747 26.2544C32.1954 26.6235 32.2683 27.1492 32.6374 27.4285C32.7889 27.5432 32.9669 27.5984 33.1434 27.5982C33.3967 27.5979 33.6469 27.4833 33.8115 27.2657C34.3046 26.6139 34.716 25.9076 35.0343 25.1664C35.217 24.7411 35.0203 24.2482 34.5949 24.0656Z" fill="black"/>
<path d="M25.7756 12.825C30.3969 12.8198 34.1607 16.5753 34.166 21.1966C34.1663 21.4593 34.1545 21.7241 34.131 21.9835C34.0893 22.4445 34.429 22.8521 34.89 22.8939C34.9161 22.8962 34.9419 22.8974 34.9676 22.8974C35.3959 22.8969 35.761 22.5698 35.8004 22.1348C35.8285 21.8247 35.8426 21.5084 35.8423 21.1947C35.836 15.6491 31.3193 11.1425 25.7737 11.1487C25.3108 11.1492 24.936 11.5249 24.9365 11.9878C24.937 12.4507 25.3127 12.8256 25.7756 12.825Z" fill="black"/>
<path d="M25.7682 6.68544C26.2311 6.68492 26.6059 6.30922 26.6054 5.84633L26.6001 1.15264C26.5996 0.689757 26.2239 0.314909 25.761 0.315431C25.2981 0.315953 24.9233 0.691647 24.9238 1.15453L24.9291 5.84822C24.9296 6.31111 25.3053 6.68596 25.7682 6.68544Z" fill="black"/>
<path d="M17.2913 8.3508C17.4469 8.61962 17.7287 8.76961 18.0184 8.76929C18.1605 8.76913 18.3046 8.73276 18.4365 8.65639C18.8371 8.4245 18.974 7.91172 18.7421 7.51112L16.3918 3.45038C16.1598 3.04966 15.6472 2.91289 15.2466 3.14479C14.846 3.37668 14.7091 3.88946 14.941 4.29006L17.2913 8.3508Z" fill="black"/>
<path d="M43.7073 30.7051L39.6413 28.364C39.24 28.1329 38.7276 28.2709 38.4967 28.6722C38.2657 29.0733 38.4036 29.5857 38.8049 29.8167L42.8709 32.1579C43.003 32.2339 43.1471 32.27 43.2893 32.2698C43.579 32.2695 43.8606 32.1187 44.0155 31.8497C44.2465 31.4486 44.1084 30.9361 43.7073 30.7051Z" fill="black"/>
<path d="M7.86247 11.9992L11.9285 14.3403C12.0606 14.4164 12.2047 14.4524 12.3469 14.4523C12.6366 14.4519 12.9182 14.3012 13.0731 14.0321C13.3041 13.631 13.1662 13.1186 12.7649 12.8876L8.69888 10.5464C8.29776 10.3153 7.7853 10.4534 7.5543 10.8546C7.32331 11.2557 7.46124 11.7681 7.86247 11.9992Z" fill="black"/>
<path d="M45.983 20.4907L41.2893 20.496C40.8264 20.4965 40.4516 20.8722 40.4521 21.3351C40.4526 21.798 40.8283 22.1728 41.2912 22.1723L45.9849 22.167C46.4478 22.1665 46.8226 21.7908 46.8221 21.3279C46.8216 20.865 46.446 20.4902 45.983 20.4907Z" fill="black"/>
<path d="M11.118 21.3685C11.1175 20.9056 10.7418 20.5307 10.2789 20.5313L5.58523 20.5366C5.12234 20.5371 4.74749 20.9128 4.74802 21.3757C4.74854 21.8386 5.12423 22.2134 5.58712 22.2129L10.2808 22.2076C10.7438 22.2071 11.1185 21.8314 11.118 21.3685Z" fill="black"/>
<path d="M39.2068 14.422C39.349 14.4219 39.4931 14.3855 39.625 14.3091L43.6858 11.9588C44.0864 11.7269 44.2232 11.2141 43.9913 10.8135C43.7595 10.4129 43.2466 10.2761 42.8461 10.508L38.7853 12.8583C38.3847 13.0902 38.2478 13.6029 38.4797 14.0035C38.6353 14.2722 38.9173 14.4223 39.2068 14.422Z" fill="black"/>
<path d="M11.9447 28.3951L7.88396 30.7454C7.48336 30.9773 7.34648 31.4901 7.57838 31.8907C7.73391 32.1594 8.01581 32.3095 8.30548 32.3092C8.44763 32.309 8.59175 32.2726 8.72365 32.1963L12.7844 29.846C13.185 29.6141 13.3219 29.1013 13.09 28.7007C12.8582 28.3 12.3451 28.1632 11.9447 28.3951Z" fill="black"/>
<path d="M33.1053 8.64027C33.2374 8.71633 33.3815 8.75238 33.5237 8.75222C33.8134 8.75189 34.095 8.60115 34.2499 8.3321L36.591 4.26606C36.822 3.86494 36.684 3.35248 36.2829 3.12149C35.8819 2.89049 35.3693 3.02842 35.1383 3.42965L32.7971 7.49569C32.5662 7.89681 32.7042 8.40928 33.1053 8.64027Z" fill="black"/>
</g>
<defs>
<clipPath id="clip0_590_8264">
<rect width="50.9468" height="50.9468" fill="white" transform="translate(0.287109 0.344421) rotate(-0.0646043)"/>
</clipPath>
</defs>
</svg>
